<svg width="86" height="47" viewBox="0 0 86 47" fill="none" xmlns="http://www.w3.org/2000/svg">
<path d="M49.1155 29.4734C50.8364 27.9565 51.8031 25.8991 51.8031 23.754C51.8031 21.6088 50.8364 19.5515 49.1155 18.0346C47.3946 16.5177 45.0606 15.6655 42.6269 15.6655C40.1933 15.6655 37.8593 16.5177 36.1384 18.0346C34.4175 19.5515 33.4507 21.6088 33.4507 23.754C33.4507 25.8991 34.4175 27.9565 36.1384 29.4734C37.8593 30.9902 40.1933 31.8424 42.6269 31.8424C45.0606 31.8424 47.3946 30.9902 49.1155 29.4734Z" stroke="#FFC99D" stroke-opacity="0.6" stroke-width="3.25397" stroke-linecap="round" stroke-linejoin="round"/>
<path d="M12.0397 23.754C16.9337 12.7079 28.3611 4.88098 42.627 4.88098C56.893 4.88098 68.3204 12.7079 73.2143 23.754C68.3204 34.8001 56.893 42.627 42.627 42.627C28.3611 42.627 16.9337 34.8001 12.0397 23.754Z" stroke="#FFC99D" stroke-opacity="0.6" stroke-width="3.25397" stroke-linecap="round" stroke-linejoin="round"/>
<path d="M71.2619 1.627C78.0909 1.627 83.627 7.16303 83.627 13.9921V32.8651C83.627 39.6941 78.0909 45.2302 71.2619 45.2302" stroke="#FFC99D" stroke-opacity="0.6" stroke-width="3.25397"/>
<path d="M13.9921 45.2302C7.16302 45.2302 1.62699 39.6941 1.62699 32.8651L1.62699 13.9921C1.62699 7.16303 7.16302 1.62699 13.9921 1.62699" stroke="#FFC99D" stroke-opacity="0.6" stroke-width="3.25397"/>
</svg>
