<svg width="33" height="25" viewBox="0 0 33 25" fill="none" xmlns="http://www.w3.org/2000/svg">
<path d="M17.7759 18.4211V13.9732H21.7393V18.4211H17.7759Z" fill="white" fill-opacity="0.41"/>
<path d="M17.8429 11.1844V6.75076C18.2044 6.72216 18.5525 6.67926 18.8873 6.67926C21.9669 6.67926 21.9267 6.67926 21.9 9.95439C21.9 10.884 21.6456 11.2559 20.7484 11.1986C19.8112 11.1271 18.8739 11.1844 17.8295 11.1844H17.8429Z" fill="white" fill-opacity="0.41"/>
<path d="M11.1346 13.9017H14.8704V18.3782H11.1346V13.9017Z" fill="white" fill-opacity="0.41"/>
<path d="M11.1614 11.0985V6.80795H14.9105V11.0985H11.1614Z" fill="white" fill-opacity="0.41"/>
<path d="M25.3813 14.7741H28.019V17.8061H25.3813V14.7741Z" fill="white" fill-opacity="0.41"/>
<path d="M7.61317 14.8313V17.7489H5.05574V14.8313H7.61317Z" fill="white" fill-opacity="0.41"/>
<path d="M28.0056 10.3406H25.3545V7.53738H28.0056V10.3406Z" fill="white" fill-opacity="0.41"/>
<path d="M5.04233 7.5517H7.50603V10.312H5.04233V7.5517Z" fill="white" fill-opacity="0.41"/>
<path d="M11.8577 0.0432129H14.2143V2.76057H11.8577V0.0432129Z" fill="white" fill-opacity="0.41"/>
<path d="M11.8711 22.3541H14.1072V24.9999H11.8711V22.3541Z" fill="white" fill-opacity="0.41"/>
<path d="M20.8556 2.76055H18.6864V0.214805C21.0966 -0.385874 21.5786 0.214814 20.8556 2.76055Z" fill="white" fill-opacity="0.41"/>
<path d="M18.6998 22.3112H20.8288V25H18.6998V22.3112Z" fill="white" fill-opacity="0.41"/>
<path d="M5.05574 22.4113H7.27843V24.7568H5.05574V22.4113Z" fill="white" fill-opacity="0.41"/>
<path d="M5.09591 0.100372H7.29182V2.48878H5.09591V0.100372Z" fill="white" fill-opacity="0.41"/>
<path d="M25.6089 0.100372H27.7914V2.48878H25.6089V0.100372Z" fill="white" fill-opacity="0.41"/>
<path d="M25.5553 24.7425C25.4348 22.0824 25.5821 21.9536 27.8048 22.5543V24.7425H25.5553Z" fill="white" fill-opacity="0.41"/>
<path d="M33 15.6609V17.2913C32.4778 16.8908 32.1431 16.6477 31.8083 16.3902L32.6653 15.3748C32.7724 15.4749 32.8929 15.5607 33 15.6609Z" fill="white" fill-opacity="0.41"/>
<path d="M0.0881604 15.618C0.954027 15.5893 1.35125 16.0089 1.27984 16.8765C0.248837 17.2341 -0.206413 16.9194 0.0881604 15.618Z" fill="white" fill-opacity="0.41"/>
</svg>
