<svg width="19" height="19" viewBox="0 0 19 19" fill="none" xmlns="http://www.w3.org/2000/svg">
<g clip-path="url(#clip0_364_4900)">
<path d="M16.74 6.1001C16.97 6.6001 17.13 7.1401 17.44 7.5801C18.57 9.1601 18.58 10.9601 17.49 12.5601C17.18 13.0101 17 13.6001 16.95 14.1501C16.87 15.1401 16.56 15.9001 15.63 16.3601C15.33 16.5101 15.05 16.7501 14.83 17.0101C13.53 18.5101 11.64 18.9401 9.91 17.9901C9.34999 17.6801 8.98 17.6901 8.42 17.9901C6.79 18.8901 4.92 18.5001 3.66 17.1401C3.35 16.8001 2.91 16.5901 2.59 16.2601C2.2 15.8401 1.57 15.3401 1.58 14.8901C1.61 13.6101 0.889995 12.7101 0.379995 11.6701C-0.310005 10.2701 -4.47035e-06 8.9201 0.849996 7.6301C1.17 7.1501 1.39 6.5201 1.4 5.9501C1.42 4.7701 1.7 3.7801 2.69 3.0301C2.95 2.8301 3.13 2.4901 3.29 2.1801C4.34 0.1601 6.47 -0.5299 8.54 0.4201C8.91 0.5901 9.5 0.5701 9.89 0.4001C11.98 -0.5199 14.05 0.2001 15.09 2.2601C15.24 2.5601 15.46 2.8701 15.73 3.0701C16.72 3.8101 17.05 4.8101 16.75 6.1001H16.74ZM9.47999 9.2001C9.47999 11.3801 9.56999 13.5601 9.45 15.7401C9.35999 17.2901 9.85999 17.7701 11.66 17.9201C12.75 18.0101 13.65 17.5201 14.37 16.6901C14.59 16.4301 14.83 16.1101 15.13 16.0101C16.19 15.6501 16.42 14.8801 16.43 13.8701C16.43 13.3901 16.63 12.8201 16.93 12.4401C18.11 10.9101 18.08 9.1401 16.87 7.6401C16.58 7.2801 16.42 6.7001 16.45 6.2301C16.53 5.0801 16.33 4.1201 15.31 3.4301C15.02 3.2301 14.82 2.8601 14.66 2.5201C13.96 1.0101 12.46 0.2401 10.85 0.6101C9.97 0.8201 9.42 1.2201 9.46 2.3201C9.55 4.6101 9.49 6.9101 9.49 9.2101L9.47999 9.2001ZM8.88 9.2001H8.87C8.87 6.9801 8.87 4.7601 8.87 2.5501C8.87 1.0801 8.41 0.6001 6.92 0.5401C5.53 0.4801 4.33 1.2601 3.72 2.5601C3.56 2.8901 3.35 3.2601 3.06 3.4601C2.05 4.1601 1.84 5.1201 1.91 6.2601C1.94 6.7301 1.78 7.3101 1.5 7.6701C0.229995 9.2501 0.219995 10.9901 1.54 12.5301C1.75 12.7801 2.07 13.1301 2.02 13.3801C1.8 14.6901 2.07 15.6501 3.48 16.0601C3.66 16.1101 3.78 16.4101 3.92 16.5901C4.86 17.8101 6.23 18.1901 7.73 17.7101C8.55 17.4501 8.92999 17.0101 8.89999 16.0801C8.83 13.7801 8.88 11.4901 8.88 9.1901V9.2001Z" fill="#FFC1BB"/>
</g>
<defs>
<clipPath id="clip0_364_4900">
<rect width="18.31" height="18.49" fill="white"/>
</clipPath>
</defs>
</svg>
