<svg width="28" height="27" viewBox="0 0 28 27" fill="none" xmlns="http://www.w3.org/2000/svg">
<path d="M14.1098 26.2444C6.39568 26.2942 0.0671429 20.5327 0.000526683 13.4148C-0.0660895 6.24714 6.19583 0.0376652 13.5503 0.000333658C21.6641 -0.0494417 27.7395 5.47562 27.9927 12.7553C28.2458 19.9478 21.9173 26.4684 14.1098 26.2444ZM13.9766 24.1787C20.4784 24.1538 25.821 19.2883 25.7277 13.2655C25.6211 6.67023 20.6516 2.16556 14.1631 2.06601C7.54148 1.96646 2.34542 7.01866 2.35874 13.3152C2.35874 19.3007 7.62142 24.2036 13.9899 24.1787H13.9766Z" fill="white"/>
<path d="M7.2084 13.0415C7.2084 9.4079 10.2861 6.55826 14.2031 6.54581C17.9336 6.54581 20.9447 9.48256 20.958 13.1286C20.958 16.7124 17.9203 19.6243 14.1098 19.6367C10.2861 19.6492 7.2084 16.7124 7.2084 13.0415Z" fill="white"/>
</svg>
