<svg width="30" height="30" viewBox="0 0 30 30" fill="none" xmlns="http://www.w3.org/2000/svg">
<path d="M14.7314 0.204102C19.8507 0.318626 24.7377 3.36129 26.6797 7.79004L26.8584 8.22363C27.9576 11.0891 28.7696 14.0578 29.6504 17.0283C29.8923 17.8398 29.8257 18.3417 29.5586 18.6455C29.2819 18.96 28.7297 19.1377 27.8125 19.1377H25.0957L25.0381 19.1914L25.0059 19.2217L24.9424 19.2812V19.3672C24.9424 20.946 24.9743 22.3006 24.9424 23.6455C24.9193 24.625 24.6217 25.3455 24.0938 25.8232C23.5632 26.3032 22.7704 26.5654 21.7061 26.5654H17.9248V29.7998H15.9756V24.5674C17.7075 24.5634 19.4351 24.5122 21.1689 24.584C21.8307 24.6146 22.3296 24.5124 22.6475 24.1914C22.9645 23.8709 23.0488 23.385 23.0244 22.7891V22.7881C22.9474 20.9987 23.0029 19.2298 23.0068 17.3066H27.9453L27.8389 17.0332C27.1763 15.3431 26.6369 13.6748 26.0459 12.0439C25.4572 10.4194 24.8208 8.84491 23.9727 7.37695C20.9039 2.05612 13.5181 0.548434 8.01855 3.69434C2.47306 6.86908 0.289586 13.9667 4.17383 18.8184C6.38421 21.5793 6.95253 24.3239 6.8584 27.4434L6.83105 28.0723C6.80196 28.6173 6.82422 29.1731 6.8291 29.7705H4.78613C4.78991 27.7777 4.84599 25.7675 4.75293 23.7764V23.7754L4.72754 23.5186C4.63968 22.9099 4.35209 22.2437 3.90918 21.8145C0.0405502 17.9978 -0.873418 12.729 1.50586 7.5918C3.68829 2.89972 8.72105 0.0708031 14.7314 0.204102Z" fill="white" fill-opacity="0.41" stroke="#1F1914" stroke-width="0.4"/>
<path d="M20.6986 12.6587C20.7306 13.6171 21.0823 14.3958 19.5477 14.7103C17.8532 15.0697 18.8923 16.103 19.4518 17.0015C19.0361 17.4657 18.6205 17.9449 18.4607 18.1097C17.1658 17.9599 16.2227 17.8401 15.2476 17.7353C15.1677 18.6188 15.1197 19.113 15.0717 19.697H12.8657C12.2583 17.286 11.8427 17.0913 9.86048 18.3792C9.38091 17.915 8.88536 17.4208 8.4058 16.9416C9.68464 14.9798 9.66865 14.9199 7.47864 14.4707V12.7485C9.58872 12.1046 9.68464 11.865 8.43777 10.1728C8.78945 9.7235 9.1731 9.2443 9.54077 8.79504C12.1304 9.87326 12.4501 9.7385 12.8498 7.35743H14.9918C15.1197 9.67859 16.3346 10.008 18.141 8.58539C18.5726 9.04962 19.0202 9.51385 19.4358 9.96311C18.2848 11.8799 18.4447 12.2543 20.6667 12.6736L20.6986 12.6587ZM13.9048 11.0863C12.626 11.1162 11.3311 12.3592 11.3311 13.5272C11.3311 14.7552 12.594 15.8634 13.9528 15.8634C15.2955 15.8634 16.6063 14.7103 16.6223 13.5272C16.6223 12.2693 15.2796 11.0563 13.9048 11.0863Z" fill="white" fill-opacity="0.41"/>
</svg>
