<svg width="108" height="74" viewBox="0 0 108 74" fill="none" xmlns="http://www.w3.org/2000/svg">
<path d="M8.86224 37.8659C9.44564 36.6316 11.2843 34.7216 12.2281 33.652C19.347 25.5838 28.3894 18.1096 38.6153 14.4499C41.1544 13.5439 43.7786 12.897 46.4479 12.5192C51.1171 11.8749 58.5643 12.0504 63.1324 13.3544C74.9995 16.7419 85.2843 24.8653 93.3983 33.9463C94.0906 34.7204 96.0194 36.7112 96.424 37.4618C96.4566 37.8422 95.9796 38.4208 95.7317 38.7134C87.2304 48.7598 76.8841 57.762 64.0112 61.4728C61.0937 62.3138 58.7156 62.6374 55.7165 62.8612C55.484 62.8762 55.2508 62.8796 55.0179 62.8714C53.7417 62.8826 52.4654 62.8826 51.1892 62.8715C48.9051 62.9084 46.4833 62.6526 44.2335 62.2194C43.4899 62.0762 42.5585 61.7263 41.7964 61.5483C40.6426 61.2788 39.5313 61.0508 38.4037 60.6787C37.0907 60.2454 35.9311 59.6897 34.6821 59.1363C28.5629 56.4977 22.9656 52.7849 18.155 48.1736C17.163 47.2128 16.0478 46.2647 15.1142 45.2772C13.0985 43.1451 11.081 40.9447 9.24041 38.6629C9.08063 38.4648 8.93668 38.1115 8.86224 37.8659ZM12.8475 38.0143C13.8119 39.1082 14.8891 40.4144 15.868 41.4603C17.5392 43.2325 19.2957 44.9222 21.1311 46.5236C21.927 47.2295 22.877 48.1199 23.6873 48.78C27.4101 51.7961 31.5224 54.2967 35.9131 56.2143C37.5553 56.9405 39.2107 57.6364 40.9169 58.2014C41.6916 58.458 42.5131 58.5814 43.2954 58.7946C47.217 59.863 51.1227 60.0217 55.1568 59.8255C58.4725 59.5402 62.2423 58.9127 65.3681 57.7915C75.949 53.9962 84.7112 46.5943 91.9284 38.141C92.044 38.0056 92.1524 37.8383 92.2406 37.6797C91.6126 36.5305 89.2734 34.2351 88.3288 33.2541C80.7092 25.3407 71.1207 18.5252 60.3232 15.8799C57.592 15.2107 52.8917 15.0471 50.1239 15.2066C34.9218 16.4464 22.9617 26.1148 13.3325 37.2588C13.128 37.4954 12.9938 37.741 12.8475 38.0143Z" fill="#F4BD96"/>
<path d="M51.1891 62.8715C51.8426 62.652 54.4037 62.6418 55.0179 62.8714C53.7417 62.8826 52.4654 62.8826 51.1891 62.8715Z" fill="#A98169"/>
<path d="M41.1561 33.9748C42.808 28.7139 47.8206 25.2459 53.3261 25.5549C58.8316 25.8639 63.4246 29.8711 64.4775 35.2838C64.7235 35.8615 64.8158 38.8371 64.5656 39.3724C63.7323 44.9249 59.174 49.1657 53.5758 49.5967C47.9777 50.0277 42.824 46.5347 41.1504 41.1752C40.244 39.3139 40.2924 35.8566 41.1561 33.9748ZM52.3535 46.567C57.2719 46.7045 61.3812 42.8501 61.5582 37.9329C61.7351 33.0157 57.9137 28.8757 52.9981 28.6594C48.0264 28.4406 43.829 32.3151 43.65 37.2883C43.471 42.2615 47.379 46.4278 52.3535 46.567Z" fill="#F4BD96"/>
<path d="M41.1504 41.1752C40.244 39.3139 40.2924 35.8566 41.1561 33.9748C40.4203 36.3183 40.4183 38.8306 41.1504 41.1752Z" fill="#A98169"/>
<path d="M64.4775 35.2838C64.7235 35.8614 64.8158 38.8371 64.5656 39.3724C64.7694 38.0145 64.7397 36.6317 64.4775 35.2838Z" fill="#7E594B"/>
<path d="M3.78178 1.98167C4.14084 1.94458 5.18164 1.97005 5.58105 1.96963L9.24192 1.96711L14.0227 1.9715C14.9901 1.97497 15.9543 1.96666 16.9166 2.04136C17.8358 2.11273 18.4022 2.77759 18.2618 3.69967C18.1804 4.23424 17.9663 4.36517 17.5569 4.68368C14.741 4.93591 11.4794 4.72731 8.6291 4.79407C7.12328 4.82934 4.68753 4.57468 3.31296 4.97352C2.98006 6.29555 3.04616 6.77115 3.04231 8.15382L3.04697 15.3778C3.04957 16.5517 3.0855 17.7675 3.0303 18.9361C2.98642 19.8651 2.32753 20.1669 1.56791 20.3255C1.0177 20.1776 0.825283 20.0515 0.349121 19.7639C0.0164255 18.6715 0.123834 17.0443 0.124928 15.8717L0.128791 10.5049L0.12608 6.76491C0.125678 5.2575 -0.045249 4.43532 1.03765 3.21927C1.94181 2.20393 2.48701 2.08815 3.78178 1.98167Z" fill="#F4BD96"/>
<path d="M2.01849 72.4578C1.22411 71.9411 0.220287 70.8285 0.174132 69.8869C0.0906869 68.1846 0.12389 66.3935 0.12487 64.6909L0.128128 59.1273C0.128741 58.4278 0.0214627 55.8724 0.333129 55.4634L0.361347 55.4261C0.715111 54.9663 1.67475 54.4209 2.27678 54.8619C2.44944 54.9883 2.78949 55.4458 2.94417 55.6288L2.95091 55.6643C3.08865 56.4146 3.04303 58.5495 3.04307 59.405L3.03784 66.2538C3.03417 67.3186 2.99047 68.4248 3.17459 69.4727C3.25721 69.9538 4.05582 70.1521 4.45826 70.1602C7.78801 70.2267 11.1203 70.1525 14.4523 70.1711C15.374 70.1762 16.4099 70.0263 17.3126 70.192C17.5992 70.2446 17.9132 70.6795 18.0942 70.9093C18.1448 71.2946 18.1977 71.6795 18.2532 72.064C18.1458 72.1828 17.8758 72.4961 17.7694 72.585C17.1994 73.1603 16.0414 72.9883 15.2495 72.9897L11.4871 72.9941L6.23041 72.9948C4.88952 72.9941 3.17158 73.1834 2.01849 72.4578Z" fill="#F4BD96"/>
<path d="M2.01849 72.4579C3.80033 72.7404 4.77412 72.7195 6.57719 72.7158L12.053 72.7115C13.3697 72.7108 16.6132 72.7924 17.7694 72.585C17.1994 73.1603 16.0414 72.9883 15.2495 72.9897L11.4871 72.9941L6.23042 72.9948C4.88953 72.9941 3.17159 73.1834 2.01849 72.4579Z" fill="#7E594B"/>
<path d="M102.099 55.988C102.501 54.8234 102.817 54.5608 103.983 54.8114C104.252 55.0875 104.675 55.493 104.875 55.8031C105.074 57.6385 104.964 61.1087 104.969 63.0666L104.983 67.1823C104.981 69.2432 105.261 71.4481 102.984 72.4477C102.684 72.5988 102.064 72.9449 101.641 72.95C97.151 73.0013 92.6178 73.0576 88.1337 72.9319C88.1127 72.9312 87.9451 72.8567 87.9155 72.8452C87.3764 72.408 86.942 72.1377 86.8799 71.3409C86.8423 70.7349 87.4551 70.2845 88.0051 70.2386C89.4301 70.1197 90.96 70.1945 92.3901 70.1961C95.4347 70.2261 98.48 70.2008 101.524 70.1202C101.642 69.81 101.962 69.3808 102.001 69.1559C102.134 68.3901 102.043 67.4677 102.047 66.6824L102.055 59.6198C102.053 58.8514 101.973 56.6668 102.099 55.988Z" fill="#F4BD96"/>
<path d="M87.9155 72.8452C88.6967 72.658 90.5069 72.713 91.3885 72.7115L97.4776 72.713C99.4534 72.7166 101.044 72.843 102.984 72.4478C102.684 72.5988 102.064 72.9449 101.641 72.95C97.151 73.0013 92.6178 73.0577 88.1337 72.9319C88.1127 72.9312 87.9451 72.8568 87.9155 72.8452Z" fill="#7E594B"/>
<path d="M102.099 55.988C102.206 56.7279 102.18 57.8438 102.182 58.6223L102.188 62.7148L102.192 66.8424C102.194 67.4696 102.439 70.0949 101.524 70.1202C101.642 69.81 101.962 69.3808 102.001 69.1559C102.134 68.3902 102.043 67.4678 102.047 66.6824L102.055 59.6199C102.053 58.8514 101.973 56.6668 102.099 55.988Z" fill="#382C25"/>
<path d="M104.723 19.7175C104.56 19.8847 104.313 20.1464 104.097 20.2233C101.617 21.1081 102.115 17.15 102.119 16.1056L102.083 10.1039C102.088 8.67556 102.114 7.14343 102.023 5.71776C102.012 5.54068 101.837 5.17597 101.759 5.00814C101.176 4.63527 98.1071 4.77119 97.2876 4.77481L91.1248 4.77891C89.9324 4.77954 86.4536 5.17709 87.0085 3.06403C87.1025 2.71099 87.3359 2.41142 87.6553 2.23439C88.2645 1.89279 90.2526 1.94824 90.9976 1.96713C94.8653 2.06514 98.8283 1.74903 102.669 2.16138C103.263 2.22514 104.18 3.35113 104.468 3.88785C104.642 4.21742 104.911 4.79331 104.895 5.13681C104.804 7.13259 105.246 18.971 104.723 19.7175Z" fill="#F4BD96"/>
<path d="M104.468 3.88785C104.642 4.21742 104.911 4.79331 104.895 5.13681C104.804 7.13259 105.246 18.971 104.723 19.7175C104.552 19.4495 104.651 16.2221 104.654 15.6602L104.638 8.90739C104.63 7.20596 104.641 5.58803 104.468 3.88785Z" fill="#C39E73"/>
</svg>
