<svg width="148" height="112" viewBox="0 0 148 112" fill="none" xmlns="http://www.w3.org/2000/svg">
<g clip-path="url(#clip0_607_8)">
<path d="M69.7722 22.1903C70.8374 22.0006 77.1306 21.9793 78.1384 22.1911C85.3347 22.8802 91.7739 23.8505 98.1082 27.3452C99.6422 28.1915 101.525 28.6515 103.138 29.6109C106.148 31.4024 109.162 33.1706 112.087 35.0993C112.91 35.6317 113.758 36.4917 114.555 37.1032C122.204 42.9975 129.168 49.7329 135.314 57.1825C135.479 57.3824 135.9 57.9306 135.818 58.1494C135.146 59.9575 132.808 62.1285 131.536 63.4931C130.321 64.7958 129.522 65.8813 128.426 67.0197C123.895 71.7666 118.984 76.1355 113.743 80.083C111.273 81.9728 108.163 83.7611 105.499 85.4316C104.123 86.1013 102.76 86.8736 101.365 87.5017C99.9159 88.154 98.4638 89.0593 97.0145 89.6618C91.9732 91.7576 86.561 93.0165 81.1421 93.6109C80.723 93.657 79.748 93.8593 79.4124 93.8411C77.8817 94.1882 70.3613 94.1551 68.8619 93.8501C67.4162 93.8998 62.205 92.8596 60.6521 92.5184C57.9137 91.834 54.5658 91.1775 51.9862 90.0821C43.0669 86.295 35.014 81.6031 27.785 75.1021C26.6857 74.1134 25.5881 72.9141 24.4706 71.963C21.3819 69.3341 18.7212 66.3068 16.0681 63.2484C14.7508 61.7373 13.3724 60.1717 12.2759 58.4868C13.6928 57.0773 14.8094 55.396 16.0726 53.8677C18.4212 51.0259 20.8433 48.5195 23.4938 45.9789C25.8352 43.6477 28.4009 41.2497 30.9479 39.1525C36.7705 34.3581 43.0054 30.1734 50.0026 27.2679C51.1901 26.7748 52.3383 26.101 53.5582 25.6404C58.8988 23.6242 64.143 22.7702 69.7722 22.1903ZM76.5349 89.7019C82.7855 89.5571 90.1942 87.5481 96.044 85.2508C97.4116 84.7137 98.8972 83.8252 100.216 83.1383C108.783 78.6949 116.555 72.8622 123.214 65.877C124.564 64.4575 125.716 63.0909 127.176 61.7336C128.024 60.945 129.273 59.2044 130.018 58.2524C129.461 57.4847 128.886 56.8102 128.311 56.0725C127.083 54.4978 125.619 53.2995 124.219 51.8925C123.42 51.0882 122.709 50.1497 121.896 49.3474C114.926 42.3992 106.879 36.6207 98.0678 32.2345C96.8079 31.6092 95.3485 30.7819 94.0639 30.2604C90.2865 28.7699 86.3584 27.6946 82.3486 27.0533C79.3372 26.5717 74.137 26.1056 71.1334 26.4234C66.3551 26.8274 61.0123 27.8771 56.4417 29.3685C53.5104 30.3251 49.943 32.2305 47.0715 33.589C43.7572 35.157 40.4331 37.9333 37.2703 39.8192C36.3148 40.6157 35.3332 41.4264 34.4062 42.2551C33.5608 43.0109 32.4236 43.6916 31.6344 44.4705C30.1096 45.9958 28.607 47.4347 26.9678 48.8435C26.0853 49.6019 25.266 50.8687 24.4134 51.6557C22.0454 53.8411 20.1042 56.2259 18.0195 58.6735C19.4547 60.0255 20.5907 61.7623 21.9781 63.1685C26.5312 67.7835 31.1909 72.4517 36.3848 76.3501C38.0846 77.4412 39.7746 78.5329 41.4656 79.6385C43.918 81.2418 46.6611 82.4912 49.2556 83.8494C55.627 87.1847 63.234 89.1154 70.3898 89.6659C72.5663 89.8333 74.3898 89.7372 76.5349 89.7019Z" fill="#F5BD95"/>
<path d="M68.8623 93.8501C72.6905 93.7004 75.6308 93.7138 79.4128 93.841C77.8821 94.1882 70.3617 94.155 68.8623 93.8501Z" fill="#A48167"/>
<path d="M69.7725 22.1903C70.8377 22.0006 77.1308 21.9793 78.1387 22.1911C77.3422 22.1797 76.4933 22.1944 75.6974 22.2658C73.706 22.4447 71.7637 22.156 69.7725 22.1903Z" fill="#805C4F"/>
<path d="M72.2083 41.1579C81.5824 40.0817 90.0519 46.8139 91.1186 56.1891C92.1851 65.5643 85.4442 74.027 76.0679 75.084C66.7052 76.1393 58.2575 69.4104 57.1925 60.0487C56.1274 50.6871 62.8478 42.2325 72.2083 41.1579ZM75.5252 70.7774C82.5018 70.0235 87.5363 63.742 86.7529 56.7687C85.9693 49.7954 79.6665 44.7875 72.6965 45.6006C65.7683 46.4089 60.7971 52.6658 61.5758 59.5975C62.3547 66.529 68.5904 71.5268 75.5252 70.7774Z" fill="#F5BD95"/>
<path d="M3.15795 107.576C2.33846 107.088 0.491554 105.765 0.41717 104.767C-0.088166 97.9842 0.277679 91.0289 0.239221 84.2126C0.231167 82.7306 1.33865 82.4194 2.51464 82.1152C4.98375 83.4607 4.1854 84.6284 4.29464 87.1225C4.44096 90.4632 4.25709 93.8027 4.29477 97.1432C4.31938 99.0415 4.1351 102.46 4.91681 104.118C6.60704 104.361 9.17033 104.28 10.9579 104.274L19.6879 104.249C21.2176 104.239 22.9281 104.149 24.4316 104.348C25.7198 104.518 26.2215 106.627 25.2483 107.559C25.0296 107.787 24.6877 108.139 24.377 108.161C21.1417 108.382 17.062 108.292 13.8449 108.292L8.1636 108.289C6.35764 108.287 4.77043 108.52 3.15795 107.576Z" fill="#F5BD95"/>
<path d="M3.1582 107.576C4.06107 107.635 4.53282 107.87 5.48066 107.877C8.25039 107.898 11.0369 107.857 13.8072 107.859L19.7672 107.863C21.5184 107.863 23.5957 107.999 25.2485 107.559C25.0299 107.787 24.688 108.139 24.3772 108.161C21.1419 108.382 17.0622 108.292 13.8452 108.292L8.16385 108.289C6.35789 108.287 4.77069 108.52 3.1582 107.576Z" fill="#805C4F"/>
<path d="M5.66727 7.81011C8.93812 7.69842 12.3195 7.86531 15.6034 7.80046C18.3349 7.74652 21.1175 7.82074 23.8491 7.8924C24.2749 7.9173 25.1028 8.08596 25.3497 8.49324C27.5569 12.1344 21.9321 11.755 20.2274 11.778C17.3721 11.8158 14.5164 11.818 11.6611 11.7846C9.968 11.7481 8.2359 11.5774 6.56247 11.66C5.39633 11.7944 4.65064 11.8372 4.48634 13.1519C4.31993 14.4833 4.31835 15.7506 4.29071 17.0641L4.29537 27.8643C4.29381 28.4785 4.37105 31.394 4.33225 31.7764C4.29704 32.153 4.15214 32.511 3.9155 32.806C2.6508 34.3918 0.109957 33.8277 0.227139 31.3352C0.286442 30.0739 0.190674 28.304 0.193528 26.9962L0.198154 19.413L0.195767 14.348C0.192603 12.5916 -0.0629678 11.0259 1.23404 9.60692C2.47064 8.25403 3.91217 7.92372 5.66727 7.81011Z" fill="#F5BD95"/>
<path d="M145.313 82.2388C145.715 82.2928 146.355 82.4472 146.769 82.5332C147.336 83.0117 147.572 83.2106 147.875 83.8861V104.513C147.222 105.875 146.572 106.62 145.249 107.348C144.756 107.659 143.827 108.191 143.259 108.21C137.327 108.403 131.364 108.242 125.424 108.289C124.446 108.296 123.924 108.258 123.176 107.556C122.281 106.628 122.292 104.813 123.675 104.429C124.853 104.103 126.64 104.27 127.903 104.274L137.523 104.279C139.189 104.28 140.971 104.339 142.628 104.212C143.111 104.175 143.236 104.104 143.566 103.821C143.944 97.4225 143.451 90.7679 143.736 84.4835C143.735 83.3221 144.437 82.7964 145.313 82.2388Z" fill="#F5BD95"/>
<path d="M123.176 107.556C123.697 107.726 124.24 107.829 124.789 107.861C125.479 107.903 126.191 107.888 126.884 107.88C132.216 107.815 137.553 107.922 142.884 107.814C143.715 107.797 144.463 107.597 145.249 107.348C144.755 107.659 143.827 108.191 143.259 108.21C137.327 108.403 131.364 108.242 125.423 108.289C124.446 108.296 123.924 108.258 123.176 107.556Z" fill="#805C4F"/>
<path d="M143.736 84.4834C144.085 85.8033 144.233 102.722 143.7 103.638C143.661 103.706 143.617 103.763 143.565 103.821C143.944 97.4225 143.451 90.7679 143.736 84.4834Z" fill="#37301B"/>
<path d="M123.325 11.2013C122.155 10.003 122.46 8.17735 124.108 7.94092C126.555 7.5896 129.307 7.90354 131.79 7.7976C135.596 7.79871 139.387 7.76068 143.188 7.87117C144.804 7.91747 145.589 8.36684 146.715 9.54846C147.454 10.3229 147.756 11.1466 147.875 12.1931V32.3989C147.083 34.1608 144.731 34.2614 143.949 32.3116C143.553 31.4045 143.712 26.2151 143.714 24.7706C143.74 20.8274 143.703 16.8841 143.604 12.9421L143.552 12.8654C143.107 12.2076 143.164 12.1923 142.514 11.6592C139.893 11.7734 136.874 11.7453 134.259 11.7322C131.57 11.7187 125.657 11.9694 123.325 11.2013Z" fill="#F5BD95"/>
<path d="M142.515 11.6592C143.466 11.7313 143.906 12.8374 143.897 13.6396C143.847 18.7849 144.077 23.9254 143.921 29.0827C143.889 30.1054 143.899 31.3256 143.95 32.3116C143.554 31.4044 143.712 26.215 143.714 24.7705C143.741 20.8273 143.704 16.884 143.604 12.942L143.553 12.8654C143.107 12.2076 143.164 12.1923 142.515 11.6592Z" fill="#37301B"/>
</g>
<defs>
<clipPath id="clip0_607_8">
<rect width="147.875" height="112" fill="white"/>
</clipPath>
</defs>
</svg>
