<svg width="14" height="21" viewBox="0 0 14 21" fill="none" xmlns="http://www.w3.org/2000/svg">
<path d="M1.84881 20.384C1.75746 20.4143 1.66103 20.4263 1.56504 20.4192C1.46906 20.4121 1.37542 20.3861 1.28952 20.3427C1.19098 20.2928 1.10469 20.2217 1.03682 20.1345C0.968951 20.0473 0.921174 19.9463 0.896906 19.8385L0.0201875 16.0871C-0.0215762 15.9132 0.00193178 15.73 0.0862522 15.5724L7.2432 1.66461C7.65477 0.9277 8.34082 0.383244 9.15196 0.149805C9.95231 -0.0998618 10.8177 -0.0355376 11.5723 0.329713C12.3094 0.721454 12.8713 1.37722 13.1454 2.16565C13.4195 2.95408 13.3856 3.81696 13.0504 4.58145L5.89924 18.5399C5.81892 18.6952 5.68811 18.8186 5.52832 18.8898L1.93073 20.4102L1.84881 20.384ZM1.50099 16.022L2.13723 18.6954L4.67021 17.6211L11.7175 3.89553C11.8431 3.59114 11.8787 3.2571 11.8201 2.93308C11.7615 2.60906 11.611 2.30868 11.3867 2.06762C11.1624 1.82657 10.8736 1.65498 10.5546 1.57323C10.2356 1.49147 9.89989 1.503 9.58728 1.60644C9.37677 1.65887 9.17912 1.75355 9.00634 1.88474C8.83356 2.01593 8.68927 2.18089 8.58223 2.36958L1.50099 16.022Z" fill="#BCC2FF"/>
</svg>
