<svg width="27" height="22" viewBox="0 0 27 22" fill="none" xmlns="http://www.w3.org/2000/svg">
<path d="M26.5411 3.83665C25.7093 3.47164 24.8776 3.14874 24.0602 2.75565C22.1098 1.78697 20.1308 1.75889 18.2235 2.75565C15.0829 4.39821 11.9853 4.41226 8.83038 2.81182C6.76533 1.77294 4.67159 1.80102 2.59219 2.88202C1.83214 3.27511 1.01472 3.54183 0.154281 3.8928C-0.189894 2.43275 -0.046488 1.57639 1.5023 0.944643C4.47082 -0.248665 7.26725 -0.290787 10.1497 1.07099C12.2435 2.06775 14.4663 2.20815 16.56 1.12716C19.8727 -0.585592 23.0993 -0.248658 26.2113 1.47813C26.7132 1.75891 26.7562 2.85393 27 3.56991C26.8423 3.65415 26.6702 3.75242 26.5124 3.83665H26.5411Z" fill="white" fill-opacity="0.41"/>
<path d="M26.5145 9.8498C25.7006 9.49995 24.8582 9.19047 24.0586 8.80025C21.8739 7.76415 19.7606 7.80452 17.6188 8.92135C14.9058 10.3342 12.0929 10.3477 9.35137 9.029C6.93824 7.8718 4.63935 7.66997 2.25479 9.01555C1.61224 9.37886 0.884019 9.60761 0.184356 9.90364C-0.258288 8.38313 0.0415678 7.54886 1.68363 6.90298C4.49656 5.7996 7.15243 5.70542 9.85112 6.99718C12.15 8.10055 14.4346 8.24857 16.7192 7.06446C19.9605 5.39594 23.1162 5.81306 26.1433 7.45467C26.6859 7.7507 26.7287 8.85408 27 9.58069C26.8429 9.67488 26.6859 9.75561 26.5288 9.8498H26.5145Z" fill="white" fill-opacity="0.41"/>
<path d="M26.5137 15.8386C25.7842 15.5225 25.0403 15.2202 24.3251 14.8766C22.1509 13.846 19.9481 13.8047 17.8168 14.8766C14.8558 16.3745 11.9664 16.3745 9.01977 14.8766C6.88846 13.791 4.69994 13.791 2.52572 14.8766C1.7676 15.2476 0.980875 15.5637 0.19415 15.921C-0.277884 14.3957 0.0797173 13.6261 1.61025 12.9665C4.51398 11.7297 7.26037 11.7022 10.0354 13.1176C12.2954 14.272 14.5125 14.2445 16.7583 13.0627C19.991 11.3587 23.1808 11.8534 26.2133 13.4887C26.7139 13.7635 26.7425 14.8629 27 15.5775C26.8427 15.6599 26.671 15.7561 26.5137 15.8386Z" fill="white" fill-opacity="0.41"/>
<path d="M26.5137 21.8037C25.6984 21.4495 24.8687 21.1089 24.0534 20.7547C22.008 19.8692 19.9482 19.8011 17.9457 20.8365C15.0134 22.3486 12.1097 22.4031 9.14882 20.9046C7.01755 19.8147 4.82906 19.8284 2.65488 20.8501C1.88247 21.2043 1.09576 21.5176 0.294748 21.8582C-0.234494 19.8284 -0.191582 19.8829 1.6107 19.0382C4.50007 17.6759 7.33223 17.7168 10.1787 19.1064C12.4387 20.2098 14.6987 20.1962 16.9158 19.0246C20.1199 17.3354 23.2524 17.9075 26.2276 19.4878C26.7282 19.7603 26.7568 20.8501 27 21.5721C26.8284 21.6538 26.671 21.7356 26.4994 21.8173L26.5137 21.8037Z" fill="white" fill-opacity="0.41"/>
</svg>
