<svg width="673" height="689" viewBox="0 0 673 689" fill="none" xmlns="http://www.w3.org/2000/svg">
<path d="M319.844 0.809216C342.839 -2.00677 385.174 3.038 407.682 8.08217C436.369 14.5934 464.075 24.8538 490.086 38.6C493.056 40.1608 500.507 43.8022 502.075 46.271C501.861 48.6853 502.265 47.5783 500.55 49.5946C498.119 50.3171 490.619 45.6048 487.821 44.1396C469.568 34.41 450.421 26.4519 430.65 20.3754C348.968 -4.69847 260.635 4.0526 185.456 44.6668C106.257 87.2703 46.9691 159.287 20.3688 245.193C-5.73563 331.514 3.45629 424.666 45.9294 504.217C88.1674 583.657 160.312 642.996 246.407 669.11C327.372 693.388 414.681 684.326 488.935 643.926C568.283 600.863 627.267 528.023 652.873 441.449C678.743 354.245 668.787 260.325 625.21 180.483C605.377 142.951 575.074 107.751 542.548 80.6305C538.47 77.2249 533.994 74.1602 530.057 70.6658C529.347 68.5087 529.414 69.6023 530.033 67.2626C530.663 66.7403 531.38 65.9039 531.992 66.0442C536.419 67.0502 547.465 77.1006 550.894 80.039C621.836 140.118 665.456 226.342 671.818 319.086C678.584 410.589 648.777 501.039 588.93 570.584C531.423 638.55 449.129 680.695 360.375 687.651C271.908 693.443 184.805 663.587 118.495 604.739C49.8959 544.929 7.68058 460.449 1.02912 369.681C-6.11219 277.75 24.1326 186.827 84.9161 117.493C144.287 48.5102 229.004 6.43262 319.844 0.809216Z" fill="black"/>
</svg>
